# xmcd
#
# Track frame offsets:
#	150
#	10455
#	21295
#	40439
#	58678
#	66670
#	83300
#	97054
#	120644
#	135597
#	147452
#	164908
#	187382
#
# Disc length: 2868 seconds
#
# Revision: 1
# Processed by: cddbd v1.5.2PL0 Copyright (c) Steve Scherf et al.
# Submitted via: audiograbber 1.83.01
#
DISCID=c90b320d
DTITLE=The Dead South - Good company
DYEAR=2014
DGENRE=Bluegrass
TTITLE0=Long Gone
TTITLE1=Achilles
TTITLE2=The Recap
TTITLE3=In Hell I'll Be In Good Company
TTITLE4=Manly Way
TTITLE5=Travellin' Man
TTITLE6=Honey You
TTITLE7=Ballad For Janoski
TTITLE8=Down That Road
TTITLE9=The Dead South
TTITLE10=That Bastard Son
TTITLE11=Deep When The River's High
TTITLE12=Into The Valley
EXTD=
EXTT0=
EXTT1=
EXTT2=
EXTT3=
EXTT4=
EXTT5=
EXTT6=
EXTT7=
EXTT8=
EXTT9=
EXTT10=
EXTT11=
EXTT12=
PLAYORDER=
